<mxfile host="app.diagrams.net" modified="2023-10-07T06:59:40.745Z" agent="Mozilla/5.0 (Macintosh; Intel Mac OS X 10_15_7) AppleWebKit/537.36 (KHTML, like Gecko) Chrome/117.0.0.0 Safari/537.36" version="21.7.1" etag="DBozMCsYMoA6YeU3qsCM" type="github">
  <diagram name="第 1 页" id="r4LvQNuxEO50nttGR-sb">
    <mxGraphModel>
      <root>
        <mxCell id="0" />
        <mxCell id="1" parent="0" />
      </root>
    </mxGraphModel>
  </diagram>
</mxfile>
